<svg id="Layer_1" data-name="Layer 1" xmlns="http://www.w3.org/2000/svg" viewBox="0 0 1067.82 280"><defs><style>.cls-1{fill:#76c69b;}.cls-2{fill:#0e1314;}</style></defs><path class="cls-1" d="M120,240A120,120,0,0,1,120,0V40a80,80,0,0,0,0,160Z"/><path class="cls-2" d="M120,280V240a80,80,0,0,0,0-160V40a120,120,0,0,1,0,240Z"/><circle class="cls-1" cx="88" cy="140" r="16"/><circle class="cls-2" cx="152" cy="140" r="16"/><path class="cls-2" d="M385.7,188.57a32.8,32.8,0,0,1-13.4-10.9,25.82,25.82,0,0,1-4.7-15h17.2a13.79,13.79,0,0,0,6,11.5q6,4.5,16,4.5,7.8,0,12.4-3.6a11.77,11.77,0,0,0,4.6-9.8,13.19,13.19,0,0,0-2.2-7.5,11.17,11.17,0,0,0-6.8-4.5l-24.6-6.4q-10-2.81-14.9-9.3a25,25,0,0,1-4.9-15.5,22.43,22.43,0,0,1,4.4-13.6A29.19,29.19,0,0,1,387,99.06a44.8,44.8,0,0,1,18-3.39q16.8,0,26.1,7.7a24.84,24.84,0,0,1,9.3,20.1H423.2a12.63,12.63,0,0,0-5-10.5q-5-3.9-14-3.9-7.2,0-11.9,3.3a10.34,10.34,0,0,0-4.7,8.9q0,9.41,10.2,11.8l23,6.4q9.79,2.59,15.2,9.2a23,23,0,0,1,5.4,15q0,13.2-9.4,21.1t-26,7.9A47.22,47.22,0,0,1,385.7,188.57Z"/><path class="cls-2" d="M463.6,78.26a13.54,13.54,0,0,1-4-10,13.9,13.9,0,0,1,4-10.1,13.66,13.66,0,0,1,10.2-4.1,13.4,13.4,0,0,1,10,4.1,13.9,13.9,0,0,1,4,10.1,13.67,13.67,0,0,1-14,14A13.81,13.81,0,0,1,463.6,78.26Zm1.4,19.8h17.4v92.21H465Z"/><path class="cls-2" d="M600.61,50.26v140h-17.2v-16.2a33.09,33.09,0,0,1-13.4,13.5,38.71,38.71,0,0,1-19.4,5.1q-14.21,0-24.6-6.3a40.26,40.26,0,0,1-15.71-17.3,56.45,56.45,0,0,1-5.3-24.8,54.08,54.08,0,0,1,5.6-24.7,42.69,42.69,0,0,1,16-17.5Q537,95.67,551,95.67a37.83,37.83,0,0,1,19.4,5,32.73,32.73,0,0,1,13,13.6v-9.6h-.2V50.26Zm-24.7,117.31q8.3-9.49,8.3-23.3,0-14-8.3-23.5t-22.9-9.5q-14,0-22.4,9.3t-8.4,23.7q0,14.4,8.4,23.6t22.4,9.2Q567.61,177.07,575.91,167.57Z"/><path class="cls-2" d="M711.81,149.27h-71.4q.2,13.2,8,20.7t21,7.5a31.12,31.12,0,0,0,15.3-3.5,20.35,20.35,0,0,0,9.1-10.1h17.4q-2.4,12.8-14,20.8t-27.8,8q-21.21,0-33.7-13.1t-12.5-35.5q0-14.61,5.6-25.5a40.49,40.49,0,0,1,15.9-16.9q10.29-6,23.9-6a46.36,46.36,0,0,1,22.9,5.5,39,39,0,0,1,15.4,15.3,44.94,44.94,0,0,1,5.5,22.4Q712.41,142.67,711.81,149.27Zm-16.6-13.4q0-12.21-7.1-19.2t-19.7-7q-12.4,0-19.9,7.2t-8.1,19Z"/><path class="cls-2" d="M770.61,142.67l44.8,47.6h-23l-40.2-43.4v43.4h-17.4v-140h17.4v89.81l40.8-42h22.4Z"/><path class="cls-2" d="M834.41,78.26a13.54,13.54,0,0,1-4-10,13.9,13.9,0,0,1,4-10.1,13.66,13.66,0,0,1,10.2-4.1,13.41,13.41,0,0,1,10,4.1,13.9,13.9,0,0,1,4,10.1,13.67,13.67,0,0,1-14,14A13.81,13.81,0,0,1,834.41,78.26Zm1.4,19.8h17.4v92.21h-17.4Z"/><path class="cls-2" d="M897.31,186.57a41.12,41.12,0,0,1-15.9-17.1,54.8,54.8,0,0,1-5.6-25.2,54.8,54.8,0,0,1,5.6-25.2,41,41,0,0,1,15.9-17.1q10.31-6.1,24.31-6.1,18.6,0,30,9.3t13,24.9h-17.4q-1.8-9.21-8.3-13.9t-17.3-4.7q-13.41,0-21,8.7t-7.6,24.1q0,15.4,7.6,24.1t21,8.7q10.8,0,17.3-4.6t8.3-13.4h17.4q-1.61,15.41-13,24.5t-30,9.1Q907.61,192.67,897.31,186.57Z"/><path class="cls-2" d="M1023,142.67l44.8,47.6h-23l-40.2-43.4v43.4h-17.4v-140h17.4v89.81l40.8-42h22.4Z"/></svg>